<svg xmlns="http://www.w3.org/2000/svg" xmlns:xlink="http://www.w3.org/1999/xlink" contentStyleType="text/css" data-diagram-type="DESCRIPTION" height="271px" preserveAspectRatio="none" style="width:980px;height:271px;background:#1B1B1B;" version="1.1" viewBox="0 0 980 271" width="980px" zoomAndPan="magnify"><defs/><g><rect fill="#1B1B1B" height="271" style="stroke:none;stroke-width:1;" width="980" x="0" y="0"/><!--cluster UGSpellAbility--><g class="cluster" data-entity="UGSpellAbility" data-source-line="5" data-uid="ent0003" id="cluster_UGSpellAbility"><rect fill="none" height="206" rx="2.5" ry="2.5" style="stroke:#E7E7E7;stroke-width:1;" width="669.8" x="305.05" y="59.15"/><text fill="#FFFFFF" font-family="sans-serif" font-size="14" font-weight="bold" lengthAdjust="spacing" textLength="113.1279" x="583.386" y="74.1451">UGSpellAbility</text></g><!--cluster FGSpellSpec--><g class="cluster" data-entity="FGSpellSpec" data-source-line="6" data-uid="ent0004" id="cluster_FGSpellSpec"><rect fill="none" height="123" rx="2.5" ry="2.5" style="stroke:#E7E7E7;stroke-width:1;" width="605.8" x="337.05" y="110.15"/><text fill="#FFFFFF" font-family="sans-serif" font-size="14" font-weight="bold" lengthAdjust="spacing" textLength="98.1504" x="590.8748" y="125.1451">FGSpellSpec</text></g><!--entity UGSpellDelivery--><g class="entity" data-entity="UGSpellDelivery" data-source-line="7" data-uid="ent0005" id="entity_UGSpellDelivery"><rect fill="#313139" height="36.2969" rx="2.5" ry="2.5" style="stroke:#E7E7E7;stroke-width:0.5;" width="133.374" x="361.05" y="173"/><text fill="#FFFFFF" font-family="sans-serif" font-size="14" lengthAdjust="spacing" textLength="113.374" x="371.05" y="195.9951">UGSpellDelivery</text></g><!--entity FGSpellDeliveryContext--><g class="entity" data-entity="FGSpellDeliveryContext" data-source-line="8" data-uid="ent0006" id="entity_FGSpellDeliveryContext"><rect fill="#313139" height="36.2969" rx="2.5" ry="2.5" style="stroke:#E7E7E7;stroke-width:0.5;" width="186.2705" x="555.81" y="173"/><text fill="#FFFFFF" font-family="sans-serif" font-size="14" lengthAdjust="spacing" textLength="166.2705" x="565.81" y="195.9951">FGSpellDeliveryContext</text></g><!--entity UGSpellEffect--><g class="entity" data-entity="UGSpellEffect" data-source-line="9" data-uid="ent0007" id="entity_UGSpellEffect"><rect fill="#313139" height="36.2969" rx="2.5" ry="2.5" style="stroke:#E7E7E7;stroke-width:0.5;" width="115.7646" x="803.08" y="173"/><text fill="#FFFFFF" font-family="sans-serif" font-size="14" lengthAdjust="spacing" textLength="95.7646" x="813.08" y="195.9951">UGSpellEffect</text></g><!--entity UGSpellDefinition--><g class="entity" data-entity="UGSpellDefinition" data-source-line="4" data-uid="ent0002" id="entity_UGSpellDefinition"><rect fill="#313139" height="36.2969" rx="2.5" ry="2.5" style="stroke:#E7E7E7;stroke-width:0.5;" width="143.0537" x="7" y="119"/><text fill="#FFFFFF" font-family="sans-serif" font-size="14" lengthAdjust="spacing" textLength="123.0537" x="17" y="141.9951">UGSpellDefinition</text></g><!--entity AGSpellInstance--><g class="entity" data-entity="AGSpellInstance" data-source-line="12" data-uid="ent0008" id="entity_AGSpellInstance"><rect fill="#313139" height="36.2969" rx="2.5" ry="2.5" style="stroke:#E7E7E7;stroke-width:0.5;" width="134.1396" x="360.67" y="7"/><text fill="#FFFFFF" font-family="sans-serif" font-size="14" lengthAdjust="spacing" textLength="114.1396" x="370.67" y="29.9951">AGSpellInstance</text></g><!--link UGSpellDefinition to FGSpellSpec--><g class="link" data-entity-1="UGSpellDefinition" data-entity-2="FGSpellSpec" data-source-line="14" data-uid="lnk9" id="link_UGSpellDefinition_FGSpellSpec"><path d="M150.21,137.15 C200.175,137.15 267.945,137.15 323.8888,137.15 C327.3852,137.15 330.8355,137.15 334.2324,137.15 C335.0816,137.15 329.9275,137.15 330.7699,137.15" fill="none" id="UGSpellDefinition-to-FGSpellSpec" style="stroke:#E7E7E7;stroke-width:1;"/><polygon fill="#E7E7E7" points="336.7699,137.15,327.7699,133.15,331.7699,137.15,327.7699,141.15,336.7699,137.15" style="stroke:#E7E7E7;stroke-width:1;"/><text fill="#FFFFFF" font-family="sans-serif" font-size="13" lengthAdjust="spacing" textLength="107.0215" x="181.05" y="133.2169">&#171;static data for&#187;</text></g><!--link UGSpellDelivery to FGSpellDeliveryContext--><g class="link" data-entity-1="UGSpellDelivery" data-entity-2="FGSpellDeliveryContext" data-source-line="15" data-uid="lnk10" id="link_UGSpellDelivery_FGSpellDeliveryContext"><path d="M494.81,191.15 C513.97,191.15 529.25,191.15 549.7,191.15" fill="none" id="UGSpellDelivery-to-FGSpellDeliveryContext" style="stroke:#E7E7E7;stroke-width:1;"/><polygon fill="#E7E7E7" points="555.7,191.15,546.7,187.15,550.7,191.15,546.7,195.15,555.7,191.15" style="stroke:#E7E7E7;stroke-width:1;"/></g><!--link FGSpellDeliveryContext to UGSpellEffect--><g class="link" data-entity-1="FGSpellDeliveryContext" data-entity-2="UGSpellEffect" data-source-line="16" data-uid="lnk11" id="link_FGSpellDeliveryContext_UGSpellEffect"><path d="M742.37,191.15 C762.95,191.15 778.18,191.15 796.85,191.15" fill="none" id="FGSpellDeliveryContext-to-UGSpellEffect" style="stroke:#E7E7E7;stroke-width:1;"/><polygon fill="#E7E7E7" points="802.85,191.15,793.85,187.15,797.85,191.15,793.85,195.15,802.85,191.15" style="stroke:#E7E7E7;stroke-width:1;"/></g><!--reverse link FGSpellSpec to AGSpellInstance--><g class="link" data-entity-1="FGSpellSpec" data-entity-2="AGSpellInstance" data-source-line="17" data-uid="lnk12" id="link_FGSpellSpec_AGSpellInstance"><path d="M427.74,103.8561 C427.74,103.5892 427.74,108.9215 427.74,108.6522 C427.74,107.5752 427.74,106.4801 427.74,105.3693 C427.74,103.1476 427.74,100.863 427.74,98.5337 C427.74,79.9 427.74,58.415 427.74,43.53" fill="none" id="FGSpellSpec-backto-AGSpellInstance" style="stroke:#E7E7E7;stroke-width:1;stroke-dasharray:7,7;"/><polygon fill="#E7E7E7" points="427.74,109.8561,431.74,100.8561,427.74,104.8561,423.74,100.8561,427.74,109.8561" style="stroke:#E7E7E7;stroke-width:1;"/><text fill="#FFFFFF" font-family="sans-serif" font-size="13" lengthAdjust="spacing" textLength="129.0669" x="351.74" y="94.6069">&#171;manages lifetime&#187;</text></g><!--SRC=[TOzV2i8m38VVSufSG0yWeo3-msVn0BMcCzYbemlY4E_kDa5drJpq8Lz_oPVcp5BRP2jqiQgZaEXEsq2OoAcLCX04yeeQCN5vKZnoJpWAm2k1-yskfX2Mv5buW5ziVk30sk8Dtfjm_MJTuthGru-XWI-KsXolF_4YYj9L_mnPUTzP0zxXFbARF-5MckvKHm1VT-1aOZuiPrWKtMzbXqUh5drCna2cEaxbVh_RGoAJ7QyjfhdiO59PiIKr6DYJSaN6F000]--></g></svg>